<svg xmlns="http://www.w3.org/2000/svg" height="48" width="48" viewBox="0 0 48 48"><title>calendar date</title><g fill="#901878" class="nc-icon-wrapper"><rect data-color="color-2" x="10" y="32" width="8" height="8" rx="1" ry="1" fill="#901878"></rect><rect data-color="color-2" x="10" y="22" width="8" height="8" rx="1" ry="1" fill="#901878"></rect><rect data-color="color-2" x="20" y="32" width="8" height="8" rx="1" ry="1" fill="#901878"></rect><rect data-color="color-2" x="20" y="22" width="8" height="8" rx="1" ry="1" fill="#901878"></rect><rect data-color="color-2" x="30" y="22" width="8" height="8" rx="1" ry="1" fill="#901878"></rect><path data-color="color-2" d="M12,11c.552,0,1-.448,1-1V2c0-.552-.448-1-1-1s-1,.448-1,1V10c0,.552,.448,1,1,1Z" fill="#901878"></path><path d="M46,5h-7v4.83c0,1.624-1.216,3.081-2.839,3.165-1.73,.091-3.161-1.285-3.161-2.996V5H15v4.83c0,1.624-1.216,3.081-2.839,3.165-1.73,.091-3.161-1.285-3.161-2.996V5H2c-.552,0-1,.448-1,1V45c0,.552,.448,1,1,1H46c.552,0,1-.448,1-1V6c0-.552-.448-1-1-1Zm-1,39H3V18H45v26Z" fill="#901878"></path><path data-color="color-2" d="M36,11c.552,0,1-.448,1-1V2c0-.552-.448-1-1-1s-1,.448-1,1V10c0,.552,.448,1,1,1Z" fill="#901878"></path></g></svg>