<?xml version="1.0" encoding="UTF-8"?>
<svg id="Layer_2" xmlns="http://www.w3.org/2000/svg" viewBox="0 0 611.98 327.43">
  <defs>
    <style>
      .cls-1 {
        fill: #2a2a2a;
      }

      .cls-2 {
        fill: #901878;
      }
    </style>
  </defs>
  <g id="Layer_1-2" data-name="Layer_1">
    <g>
      <g>
        <path class="cls-1" d="M27.15,84.57c-3.65,0-7.14-.3-10.48-.91s-6.3-1.52-8.86-2.73c-1.55-.68-2.65-1.55-3.29-2.63-.64-1.08-.91-2.23-.81-3.44.1-1.22.51-2.3,1.22-3.24.71-.95,1.6-1.61,2.68-1.98,1.08-.37,2.23-.29,3.44.25,2.97,1.35,5.72,2.23,8.25,2.63s4.71.61,6.53.61c4.32,0,7.56-.98,9.72-2.94,2.16-1.96,3.24-4.96,3.24-9.01v-7.7h.91c-1.01,3.11-3.11,5.64-6.28,7.6-3.17,1.96-6.68,2.94-10.53,2.94-4.46,0-8.34-1.03-11.65-3.09-3.31-2.06-5.87-4.96-7.7-8.71-1.82-3.75-2.73-8.08-2.73-13.01,0-3.71.52-7.09,1.57-10.13,1.05-3.04,2.53-5.64,4.46-7.8,1.92-2.16,4.25-3.83,6.99-5.01,2.73-1.18,5.76-1.77,9.06-1.77,3.98,0,7.51.96,10.58,2.89,3.07,1.92,5.11,4.44,6.13,7.55l-1.01,3.24v-5.77c0-2.5.66-4.41,1.98-5.72s3.19-1.98,5.62-1.98,4.29.66,5.57,1.98c1.28,1.32,1.92,3.22,1.92,5.72v37.07c0,8.3-2.28,14.57-6.84,18.79-4.56,4.22-11.12,6.33-19.7,6.33ZM27.45,52.56c2.3,0,4.27-.54,5.92-1.62,1.65-1.08,2.95-2.62,3.9-4.61.95-1.99,1.42-4.37,1.42-7.14,0-4.19-1.03-7.44-3.09-9.77-2.06-2.33-4.78-3.49-8.15-3.49-2.3,0-4.29.52-5.98,1.57-1.69,1.05-2.99,2.57-3.9,4.56-.91,1.99-1.37,4.37-1.37,7.14,0,4.19,1.01,7.46,3.04,9.82,2.03,2.36,4.76,3.54,8.2,3.54Z"/>
        <path class="cls-1" d="M73.43,66.13c-2.57,0-4.52-.68-5.87-2.03-1.35-1.35-2.03-3.27-2.03-5.77V22.38c0-2.5.66-4.41,1.98-5.72,1.32-1.32,3.16-1.98,5.52-1.98s4.29.66,5.57,1.98c1.28,1.32,1.92,3.22,1.92,5.72v5.27h-1.01c.81-4.05,2.6-7.19,5.37-9.42,2.77-2.23,6.35-3.48,10.74-3.75,1.69-.13,2.99.29,3.9,1.27.91.98,1.4,2.58,1.47,4.81.13,2.09-.29,3.75-1.27,4.96-.98,1.22-2.62,1.96-4.91,2.23l-2.33.2c-3.85.34-6.7,1.45-8.56,3.34-1.86,1.89-2.79,4.63-2.79,8.2v18.84c0,2.5-.66,4.42-1.97,5.77-1.32,1.35-3.23,2.03-5.72,2.03Z"/>
        <path class="cls-1" d="M123.56,66.34c-3.65,0-6.92-.71-9.82-2.13-2.9-1.42-5.16-3.34-6.78-5.77-1.62-2.43-2.43-5.16-2.43-8.2,0-3.65.95-6.53,2.84-8.66,1.89-2.13,4.96-3.65,9.22-4.56,4.25-.91,9.89-1.37,16.91-1.37h5.37v7.9h-5.27c-3.44,0-6.23.19-8.35.56-2.13.37-3.65,1-4.56,1.87-.91.88-1.37,2.09-1.37,3.65,0,1.89.66,3.44,1.98,4.66,1.32,1.22,3.22,1.82,5.72,1.82,1.96,0,3.7-.46,5.22-1.37s2.72-2.16,3.59-3.75c.88-1.59,1.32-3.39,1.32-5.42v-11.65c0-2.97-.68-5.08-2.03-6.33-1.35-1.25-3.65-1.87-6.89-1.87-1.82,0-3.8.22-5.93.66-2.13.44-4.47,1.16-7.04,2.18-1.48.68-2.8.83-3.95.46-1.15-.37-2.03-1.05-2.63-2.03-.61-.98-.91-2.06-.91-3.24s.34-2.33,1.01-3.44c.67-1.11,1.79-1.94,3.34-2.48,3.17-1.28,6.16-2.16,8.96-2.63,2.8-.47,5.38-.71,7.75-.71,5.2,0,9.47.76,12.81,2.28,3.34,1.52,5.86,3.85,7.54,6.99,1.69,3.14,2.53,7.17,2.53,12.1v22.48c0,2.5-.61,4.42-1.82,5.77-1.21,1.35-2.97,2.03-5.27,2.03s-4.07-.68-5.32-2.03c-1.25-1.35-1.87-3.27-1.87-5.77v-3.75l.71.61c-.41,2.3-1.27,4.27-2.58,5.92-1.32,1.66-2.99,2.94-5.01,3.85-2.02.91-4.35,1.37-6.99,1.37Z"/>
        <path class="cls-1" d="M170.86,66.13c-2.5,0-4.41-.68-5.72-2.03-1.32-1.35-1.98-3.27-1.98-5.77V22.38c0-2.5.66-4.41,1.98-5.72,1.32-1.32,3.16-1.98,5.52-1.98s4.29.66,5.57,1.98c1.28,1.32,1.92,3.22,1.92,5.72v5.77l-1.11-3.34c1.55-3.31,3.86-5.86,6.94-7.65,3.07-1.79,6.57-2.68,10.48-2.68s7.26.76,9.82,2.28c2.56,1.52,4.49,3.82,5.77,6.89,1.28,3.07,1.92,6.97,1.92,11.7v22.99c0,2.5-.66,4.42-1.98,5.77-1.32,1.35-3.22,2.03-5.72,2.03s-4.31-.68-5.62-2.03c-1.32-1.35-1.98-3.27-1.98-5.77v-22.28c0-3.44-.63-5.93-1.87-7.44-1.25-1.52-3.16-2.28-5.72-2.28-3.24,0-5.82,1.01-7.75,3.04-1.92,2.03-2.89,4.73-2.89,8.1v20.86c0,5.2-2.53,7.8-7.6,7.8Z"/>
        <path class="cls-1" d="M247.83,66.34c-4.66,0-8.56-.78-11.7-2.33-3.14-1.55-5.47-3.81-6.99-6.79-1.52-2.97-2.28-6.72-2.28-11.24v-19.04h-4.25c-1.89,0-3.36-.51-4.41-1.52-1.05-1.01-1.57-2.4-1.57-4.15,0-1.89.52-3.32,1.57-4.3,1.05-.98,2.52-1.47,4.41-1.47h4.25v-7.7c0-2.56.67-4.51,2.03-5.82,1.35-1.32,3.24-1.98,5.67-1.98s4.39.66,5.67,1.98c1.28,1.32,1.92,3.26,1.92,5.82v7.7h9.62c1.89,0,3.34.49,4.35,1.47,1.01.98,1.52,2.41,1.52,4.3,0,1.76-.51,3.14-1.52,4.15-1.01,1.01-2.46,1.52-4.35,1.52h-9.62v18.43c0,2.84.66,4.96,1.98,6.38,1.32,1.42,3.43,2.13,6.33,2.13,1.01,0,1.96-.1,2.84-.3.88-.2,1.69-.34,2.43-.41.95-.07,1.72.22,2.33.86.61.64.91,2.04.91,4.2,0,1.62-.27,3.04-.81,4.25-.54,1.22-1.49,2.09-2.84,2.63-.88.34-2.08.62-3.6.86-1.52.24-2.82.35-3.9.35Z"/>
        <path class="cls-1" d="M23.71,187.67c-2.02,0-3.75-.49-5.16-1.47s-2.57-2.55-3.44-4.71L.82,146.14c-.74-1.89-.98-3.56-.71-5.01.27-1.45.99-2.63,2.18-3.54,1.18-.91,2.82-1.37,4.91-1.37,1.75,0,3.21.42,4.35,1.27,1.15.84,2.13,2.45,2.94,4.81l11.14,29.67h-2.33l11.55-30.99c.54-1.62,1.33-2.82,2.38-3.6,1.05-.78,2.41-1.16,4.1-1.16s3.05.41,4.1,1.22c1.05.81,1.87,1.99,2.48,3.54l11.34,30.99h-1.92l11.04-30.08c.81-2.16,1.86-3.65,3.14-4.46,1.28-.81,2.67-1.22,4.15-1.22,1.89,0,3.36.47,4.41,1.42,1.05.95,1.65,2.16,1.82,3.65.17,1.49-.12,3.11-.86,4.86l-14.18,35.35c-.81,2.09-1.94,3.65-3.39,4.66-1.45,1.01-3.19,1.52-5.22,1.52s-3.66-.51-5.12-1.52c-1.45-1.01-2.62-2.57-3.49-4.66l-12.15-31.6h6.58l-11.85,31.5c-.81,2.09-1.92,3.66-3.34,4.71-1.42,1.05-3.14,1.57-5.16,1.57Z"/>
        <path class="cls-1" d="M98.35,187.67c-2.57,0-4.52-.68-5.87-2.03-1.35-1.35-2.03-3.27-2.03-5.77v-35.95c0-2.5.66-4.41,1.98-5.72,1.32-1.32,3.16-1.98,5.52-1.98s4.29.66,5.57,1.98c1.28,1.32,1.92,3.22,1.92,5.72v5.27h-1.01c.81-4.05,2.6-7.19,5.37-9.42,2.77-2.23,6.35-3.48,10.74-3.75,1.69-.13,2.99.29,3.9,1.27.91.98,1.4,2.58,1.47,4.81.13,2.09-.29,3.75-1.27,4.96-.98,1.22-2.62,1.96-4.91,2.23l-2.33.2c-3.85.34-6.7,1.45-8.56,3.34-1.86,1.89-2.79,4.63-2.79,8.2v18.84c0,2.5-.66,4.42-1.97,5.77-1.32,1.35-3.23,2.03-5.72,2.03Z"/>
        <path class="cls-1" d="M139.87,127.91c-2.84,0-5.01-.66-6.53-1.97s-2.28-3.19-2.28-5.62.76-4.41,2.28-5.72,3.7-1.98,6.53-1.98,4.99.66,6.48,1.98c1.48,1.32,2.23,3.22,2.23,5.72s-.74,4.3-2.23,5.62c-1.49,1.32-3.65,1.97-6.48,1.97ZM139.87,187.57c-2.5,0-4.41-.73-5.72-2.18-1.32-1.45-1.98-3.49-1.98-6.13v-34.64c0-2.7.66-4.78,1.98-6.23,1.32-1.45,3.22-2.18,5.72-2.18s4.3.73,5.62,2.18c1.32,1.45,1.98,3.53,1.98,6.23v34.64c0,2.63-.64,4.68-1.92,6.13-1.28,1.45-3.17,2.18-5.67,2.18Z"/>
        <path class="cls-1" d="M183.72,187.87c-4.66,0-8.56-.78-11.7-2.33-3.14-1.55-5.47-3.81-6.99-6.79-1.52-2.97-2.28-6.72-2.28-11.24v-19.04h-4.25c-1.89,0-3.36-.51-4.41-1.52-1.05-1.01-1.57-2.4-1.57-4.15,0-1.89.52-3.32,1.57-4.3,1.05-.98,2.52-1.47,4.41-1.47h4.25v-7.7c0-2.56.67-4.51,2.03-5.82,1.35-1.32,3.24-1.98,5.67-1.98s4.39.66,5.67,1.98c1.28,1.32,1.92,3.26,1.92,5.82v7.7h9.62c1.89,0,3.34.49,4.35,1.47,1.01.98,1.52,2.41,1.52,4.3,0,1.76-.51,3.14-1.52,4.15-1.01,1.01-2.46,1.52-4.35,1.52h-9.62v18.43c0,2.84.66,4.96,1.98,6.38,1.32,1.42,3.43,2.13,6.33,2.13,1.01,0,1.96-.1,2.84-.3.88-.2,1.69-.34,2.43-.41.95-.07,1.72.22,2.33.86.61.64.91,2.04.91,4.2,0,1.62-.27,3.04-.81,4.25-.54,1.22-1.49,2.09-2.84,2.63-.88.34-2.08.62-3.6.86-1.52.24-2.82.35-3.9.35Z"/>
        <path class="cls-1" d="M209.45,127.91c-2.84,0-5.01-.66-6.53-1.97s-2.28-3.19-2.28-5.62.76-4.41,2.28-5.72,3.7-1.98,6.53-1.98,4.99.66,6.48,1.98c1.48,1.32,2.23,3.22,2.23,5.72s-.74,4.3-2.23,5.62c-1.49,1.32-3.65,1.97-6.48,1.97ZM209.45,187.57c-2.5,0-4.41-.73-5.72-2.18-1.32-1.45-1.98-3.49-1.98-6.13v-34.64c0-2.7.66-4.78,1.98-6.23,1.32-1.45,3.22-2.18,5.72-2.18s4.3.73,5.62,2.18c1.32,1.45,1.98,3.53,1.98,6.23v34.64c0,2.63-.64,4.68-1.92,6.13-1.28,1.45-3.17,2.18-5.67,2.18Z"/>
        <path class="cls-1" d="M236.59,187.67c-2.5,0-4.41-.68-5.72-2.03-1.32-1.35-1.98-3.27-1.98-5.77v-35.95c0-2.5.66-4.41,1.98-5.72,1.32-1.32,3.16-1.98,5.52-1.98s4.29.66,5.57,1.98c1.28,1.32,1.92,3.22,1.92,5.72v5.77l-1.11-3.34c1.55-3.31,3.86-5.86,6.94-7.65,3.07-1.79,6.57-2.68,10.48-2.68s7.26.76,9.82,2.28c2.56,1.52,4.49,3.82,5.77,6.89,1.28,3.07,1.92,6.97,1.92,11.7v22.99c0,2.5-.66,4.42-1.98,5.77-1.32,1.35-3.22,2.03-5.72,2.03s-4.31-.68-5.62-2.03c-1.32-1.35-1.98-3.27-1.98-5.77v-22.28c0-3.44-.63-5.93-1.87-7.44-1.25-1.52-3.16-2.28-5.72-2.28-3.24,0-5.82,1.01-7.75,3.04-1.92,2.03-2.89,4.73-2.89,8.1v20.86c0,5.2-2.53,7.8-7.6,7.8Z"/>
        <path class="cls-1" d="M313.05,206.1c-3.65,0-7.14-.3-10.48-.91s-6.3-1.52-8.86-2.73c-1.55-.68-2.65-1.55-3.29-2.63-.64-1.08-.91-2.23-.81-3.44.1-1.22.51-2.3,1.22-3.24.71-.95,1.6-1.61,2.68-1.98,1.08-.37,2.23-.29,3.44.25,2.97,1.35,5.72,2.23,8.25,2.63s4.71.61,6.53.61c4.32,0,7.56-.98,9.72-2.94,2.16-1.96,3.24-4.96,3.24-9.01v-7.7h.91c-1.01,3.11-3.11,5.64-6.28,7.6-3.17,1.96-6.68,2.94-10.53,2.94-4.46,0-8.34-1.03-11.65-3.09-3.31-2.06-5.87-4.96-7.7-8.71-1.82-3.75-2.73-8.08-2.73-13.01,0-3.71.52-7.09,1.57-10.13,1.05-3.04,2.53-5.64,4.46-7.8,1.92-2.16,4.25-3.83,6.99-5.01,2.73-1.18,5.76-1.77,9.06-1.77,3.98,0,7.51.96,10.58,2.89,3.07,1.92,5.11,4.44,6.13,7.55l-1.01,3.24v-5.77c0-2.5.66-4.41,1.98-5.72s3.19-1.98,5.62-1.98,4.29.66,5.57,1.98c1.28,1.32,1.92,3.22,1.92,5.72v37.07c0,8.3-2.28,14.57-6.84,18.79-4.56,4.22-11.12,6.33-19.7,6.33ZM313.35,174.1c2.3,0,4.27-.54,5.92-1.62,1.65-1.08,2.95-2.62,3.9-4.61.95-1.99,1.42-4.37,1.42-7.14,0-4.19-1.03-7.44-3.09-9.77-2.06-2.33-4.78-3.49-8.15-3.49-2.3,0-4.29.52-5.98,1.57-1.69,1.05-2.99,2.57-3.9,4.56-.91,1.99-1.37,4.37-1.37,7.14,0,4.19,1.01,7.46,3.04,9.82,2.03,2.36,4.76,3.54,8.2,3.54Z"/>
        <path class="cls-1" d="M33.94,309.4c-3.99,0-7.51-1-10.58-2.99-3.07-1.99-5.11-4.64-6.13-7.95l1.11-3.34v6.28c0,2.5-.64,4.42-1.92,5.77-1.28,1.35-3.14,2.03-5.57,2.03s-4.31-.68-5.62-2.03c-1.32-1.35-1.98-3.27-1.98-5.77v-57.63c0-2.57.66-4.51,1.98-5.82,1.32-1.32,3.22-1.98,5.72-1.98s4.3.66,5.62,1.98c1.32,1.32,1.98,3.26,1.98,5.82v24h-1.22c1.08-3.04,3.14-5.5,6.18-7.39,3.04-1.89,6.52-2.84,10.43-2.84,4.39,0,8.2,1.05,11.44,3.14,3.24,2.09,5.77,5.06,7.6,8.91,1.82,3.85,2.73,8.44,2.73,13.77s-.91,9.96-2.73,13.87c-1.82,3.92-4.37,6.92-7.65,9.01s-7.07,3.14-11.39,3.14ZM29.38,297.96c2.16,0,4.07-.54,5.72-1.62,1.65-1.08,2.94-2.68,3.85-4.81.91-2.13,1.37-4.84,1.37-8.15,0-4.93-1.01-8.56-3.04-10.89-2.03-2.33-4.66-3.49-7.9-3.49-2.16,0-4.07.51-5.72,1.52-1.66,1.01-2.95,2.58-3.9,4.71-.95,2.13-1.42,4.84-1.42,8.15,0,4.93,1.01,8.59,3.04,10.99,2.02,2.4,4.69,3.59,8,3.59Z"/>
        <path class="cls-1" d="M88.93,309.4c-5.33,0-9.98-1.05-13.93-3.14-3.95-2.09-7-5.1-9.17-9.01-2.16-3.91-3.24-8.54-3.24-13.87,0-3.98.61-7.56,1.82-10.74,1.22-3.17,2.99-5.89,5.32-8.15,2.33-2.26,5.11-3.98,8.35-5.16,3.24-1.18,6.85-1.77,10.84-1.77,5.33,0,9.98,1.05,13.93,3.14,3.95,2.09,7.02,5.06,9.22,8.91,2.19,3.85,3.29,8.44,3.29,13.77,0,4.05-.63,7.66-1.87,10.84-1.25,3.17-3.02,5.91-5.32,8.2-2.3,2.3-5.08,4.04-8.35,5.22-3.28,1.18-6.9,1.77-10.89,1.77ZM88.93,297.96c2.23,0,4.15-.54,5.77-1.62,1.62-1.08,2.9-2.68,3.85-4.81.95-2.13,1.42-4.84,1.42-8.15,0-4.93-1.01-8.56-3.04-10.89-2.03-2.33-4.69-3.49-8-3.49-2.16,0-4.07.51-5.72,1.52-1.66,1.01-2.94,2.58-3.85,4.71-.91,2.13-1.37,4.84-1.37,8.15,0,4.93,1.01,8.59,3.04,10.99,2.03,2.4,4.66,3.59,7.9,3.59Z"/>
        <path class="cls-1" d="M148.58,309.4c-5.33,0-9.98-1.05-13.93-3.14-3.95-2.09-7-5.1-9.17-9.01-2.16-3.91-3.24-8.54-3.24-13.87,0-3.98.61-7.56,1.82-10.74,1.22-3.17,2.99-5.89,5.32-8.15,2.33-2.26,5.11-3.98,8.35-5.16,3.24-1.18,6.85-1.77,10.84-1.77,5.33,0,9.98,1.05,13.93,3.14,3.95,2.09,7.02,5.06,9.22,8.91,2.19,3.85,3.29,8.44,3.29,13.77,0,4.05-.63,7.66-1.87,10.84-1.25,3.17-3.02,5.91-5.32,8.2-2.3,2.3-5.08,4.04-8.35,5.22-3.28,1.18-6.9,1.77-10.89,1.77ZM148.58,297.96c2.23,0,4.15-.54,5.77-1.62,1.62-1.08,2.9-2.68,3.85-4.81.95-2.13,1.42-4.84,1.42-8.15,0-4.93-1.01-8.56-3.04-10.89-2.03-2.33-4.69-3.49-8-3.49-2.16,0-4.07.51-5.72,1.52-1.66,1.01-2.94,2.58-3.85,4.71-.91,2.13-1.37,4.84-1.37,8.15,0,4.93,1.01,8.59,3.04,10.99,2.03,2.4,4.66,3.59,7.9,3.59Z"/>
        <path class="cls-1" d="M208.23,309.4c-4.66,0-8.56-.78-11.7-2.33-3.14-1.55-5.47-3.81-6.99-6.79-1.52-2.97-2.28-6.72-2.28-11.24v-19.04h-4.25c-1.89,0-3.36-.51-4.41-1.52-1.05-1.01-1.57-2.4-1.57-4.15,0-1.89.52-3.32,1.57-4.3,1.05-.98,2.52-1.47,4.41-1.47h4.25v-7.7c0-2.56.67-4.51,2.03-5.82,1.35-1.32,3.24-1.98,5.67-1.98s4.39.66,5.67,1.98c1.28,1.32,1.92,3.26,1.92,5.82v7.7h9.62c1.89,0,3.34.49,4.35,1.47,1.01.98,1.52,2.41,1.52,4.3,0,1.76-.51,3.14-1.52,4.15-1.01,1.01-2.46,1.52-4.35,1.52h-9.62v18.43c0,2.84.66,4.96,1.98,6.38,1.32,1.42,3.43,2.13,6.33,2.13,1.01,0,1.96-.1,2.84-.3.88-.2,1.69-.34,2.43-.41.95-.07,1.72.22,2.33.86.61.64.91,2.04.91,4.2,0,1.62-.27,3.04-.81,4.25-.54,1.22-1.49,2.09-2.84,2.63-.88.34-2.08.62-3.6.86-1.52.24-2.82.35-3.9.35Z"/>
        <path class="cls-1" d="M248.44,309.4c-5.4,0-10.11-1.06-14.13-3.19-4.02-2.13-7.11-5.15-9.27-9.06-2.16-3.91-3.24-8.54-3.24-13.88,0-3.98.61-7.56,1.82-10.74,1.22-3.17,2.99-5.87,5.32-8.1,2.33-2.23,5.15-3.93,8.46-5.11,3.31-1.18,6.99-1.77,11.04-1.77,2.09,0,4.32.25,6.68.76,2.36.51,4.69,1.37,6.99,2.58,1.35.61,2.28,1.47,2.79,2.58s.69,2.26.56,3.44c-.14,1.18-.56,2.23-1.27,3.14s-1.6,1.52-2.68,1.82c-1.08.3-2.3.12-3.65-.56-1.28-.74-2.62-1.28-4-1.62-1.38-.34-2.68-.51-3.9-.51-2.02,0-3.81.32-5.37.96-1.55.64-2.85,1.55-3.9,2.73-1.05,1.18-1.86,2.65-2.43,4.41-.58,1.76-.86,3.78-.86,6.08,0,4.46,1.1,7.95,3.29,10.48,2.19,2.53,5.28,3.8,9.27,3.8,1.22,0,2.5-.15,3.85-.46,1.35-.3,2.7-.83,4.05-1.57,1.35-.67,2.56-.84,3.65-.51,1.08.34,1.94.96,2.58,1.87.64.91,1.01,1.96,1.11,3.14.1,1.18-.1,2.33-.61,3.44-.51,1.11-1.4,1.98-2.68,2.58-2.3,1.15-4.59,1.98-6.89,2.48-2.3.51-4.49.76-6.58.76Z"/>
        <path class="cls-1" d="M289.25,309.4c-3.65,0-6.92-.71-9.82-2.13-2.9-1.42-5.16-3.34-6.78-5.77-1.62-2.43-2.43-5.16-2.43-8.2,0-3.65.95-6.53,2.84-8.66,1.89-2.13,4.96-3.65,9.22-4.56,4.25-.91,9.89-1.37,16.91-1.37h5.37v7.9h-5.27c-3.44,0-6.23.19-8.35.56-2.13.37-3.65,1-4.56,1.87-.91.88-1.37,2.09-1.37,3.65,0,1.89.66,3.44,1.98,4.66,1.32,1.22,3.22,1.82,5.72,1.82,1.96,0,3.7-.46,5.22-1.37s2.72-2.16,3.59-3.75c.88-1.59,1.32-3.39,1.32-5.42v-11.65c0-2.97-.68-5.08-2.03-6.33-1.35-1.25-3.65-1.87-6.89-1.87-1.82,0-3.8.22-5.93.66-2.13.44-4.47,1.16-7.04,2.18-1.48.68-2.8.83-3.95.46-1.15-.37-2.03-1.05-2.63-2.03-.61-.98-.91-2.06-.91-3.24s.34-2.33,1.01-3.44c.67-1.11,1.79-1.94,3.34-2.48,3.17-1.28,6.16-2.16,8.96-2.63,2.8-.47,5.38-.71,7.75-.71,5.2,0,9.47.76,12.81,2.28,3.34,1.52,5.86,3.85,7.54,6.99,1.69,3.14,2.53,7.17,2.53,12.1v22.48c0,2.5-.61,4.42-1.82,5.77-1.21,1.35-2.97,2.03-5.27,2.03s-4.07-.68-5.32-2.03c-1.25-1.35-1.87-3.27-1.87-5.77v-3.75l.71.61c-.41,2.3-1.27,4.27-2.58,5.92-1.32,1.66-2.99,2.94-5.01,3.85-2.02.91-4.35,1.37-6.99,1.37Z"/>
        <path class="cls-1" d="M336.75,309.2c-2.5,0-4.41-.68-5.72-2.03-1.32-1.35-1.97-3.27-1.97-5.77v-35.95c0-2.5.66-4.41,1.97-5.72,1.32-1.32,3.16-1.98,5.52-1.98s4.29.66,5.57,1.98c1.28,1.32,1.92,3.22,1.92,5.72v6.48l-1.11-4.05c1.35-3.1,3.44-5.6,6.28-7.49,2.84-1.89,6.18-2.84,10.03-2.84s7.05.91,9.62,2.73c2.56,1.82,4.39,4.63,5.47,8.41h-1.42c1.48-3.44,3.76-6.16,6.84-8.15,3.07-1.99,6.6-2.99,10.58-2.99s7,.76,9.47,2.28c2.46,1.52,4.3,3.82,5.52,6.89,1.22,3.07,1.82,6.97,1.82,11.7v22.99c0,2.5-.66,4.42-1.98,5.77-1.32,1.35-3.19,2.03-5.62,2.03s-4.41-.68-5.72-2.03c-1.32-1.35-1.98-3.27-1.98-5.77v-22.48c0-3.31-.52-5.72-1.57-7.24-1.05-1.52-2.82-2.28-5.32-2.28-2.9,0-5.17,1.01-6.79,3.04-1.62,2.03-2.43,4.9-2.43,8.61v20.36c0,2.5-.66,4.42-1.97,5.77-1.32,1.35-3.19,2.03-5.62,2.03s-4.32-.68-5.67-2.03c-1.35-1.35-2.03-3.27-2.03-5.77v-22.48c0-3.31-.52-5.72-1.57-7.24-1.05-1.52-2.82-2.28-5.32-2.28-2.9,0-5.16,1.01-6.79,3.04-1.62,2.03-2.43,4.9-2.43,8.61v20.36c0,5.2-2.53,7.8-7.6,7.8Z"/>
        <path class="cls-1" d="M426.59,327.43c-2.5,0-4.41-.66-5.72-1.97-1.32-1.32-1.98-3.26-1.98-5.82v-54.18c0-2.5.66-4.41,1.98-5.72,1.32-1.32,3.16-1.98,5.52-1.98,2.5,0,4.39.66,5.67,1.98,1.28,1.32,1.92,3.22,1.92,5.72v6.89l-1.11-3.95c1.01-3.24,3.05-5.86,6.13-7.85,3.07-1.99,6.6-2.99,10.58-2.99,4.32,0,8.12,1.05,11.39,3.14,3.27,2.09,5.82,5.06,7.65,8.91,1.82,3.85,2.73,8.44,2.73,13.77s-.91,9.96-2.73,13.87c-1.82,3.92-4.36,6.92-7.6,9.01s-7.06,3.14-11.44,3.14c-3.92,0-7.39-.96-10.43-2.89-3.04-1.92-5.1-4.44-6.18-7.55h1.22v20.66c0,2.57-.66,4.51-1.98,5.82-1.32,1.32-3.19,1.97-5.62,1.97ZM445.02,297.96c2.16,0,4.07-.54,5.72-1.62,1.65-1.08,2.94-2.68,3.85-4.81.91-2.13,1.37-4.84,1.37-8.15,0-4.93-1.01-8.56-3.04-10.89-2.03-2.33-4.66-3.49-7.9-3.49-2.16,0-4.07.51-5.72,1.52-1.66,1.01-2.95,2.58-3.9,4.71-.95,2.13-1.42,4.84-1.42,8.15,0,4.93,1.01,8.59,3.04,10.99,2.02,2.4,4.69,3.59,8,3.59Z"/>
      </g>
      <path class="cls-2" d="M606.91,49.6l-68.31,12.81c-2.32.44-3.84,2.67-3.41,4.99.16.84.57,1.62,1.18,2.23l21.71,21.71-40.04,40.04-45.2-45.19c-3.33-3.33-8.74-3.33-12.07,0l-51.23,51.23c-3.28,3.39-3.18,8.8.21,12.07,3.31,3.2,8.55,3.2,11.86,0l45.2-45.2,45.2,45.2c3.33,3.33,8.74,3.33,12.07,0l46.08-46.08,21.71,21.71c.8.8,1.89,1.25,3.02,1.25.43,0,.87-.06,1.28-.19,1.51-.47,2.64-1.74,2.93-3.3l12.81-68.31c.43-2.32-1.09-4.55-3.41-4.98-.52-.1-1.05-.1-1.57,0h-.02Z"/>
    </g>
  </g>
</svg>