<svg xmlns="http://www.w3.org/2000/svg" height="48" width="48" viewBox="0 0 48 48"><title>timer</title><g fill="#901878" class="nc-icon-wrapper"><path d="M17,3h6V6a1,1,0,0,0,2,0V3h6a1,1,0,0,0,0-2H17a1,1,0,0,0,0,2Z" fill="#901878" data-color="color-2"></path> <path d="M24,29a1,1,0,0,0,.707-.293l8.5-8.5a1,1,0,0,0-1.414-1.414l-8.5,8.5A1,1,0,0,0,24,29Z" fill="#901878" data-color="color-2"></path> <path d="M24,9A19.021,19.021,0,0,0,5,28V46a1,1,0,0,0,1,1H42a1,1,0,0,0,1-1V28A19.021,19.021,0,0,0,24,9Zm0,2A17,17,0,1,1,7,28,17.019,17.019,0,0,1,24,11Z" fill="#901878"></path> <path d="M24,19a1,1,0,0,0,1-1V16a1,1,0,0,0-2,0v2A1,1,0,0,0,24,19Z" fill="#901878" data-color="color-2"></path> <path d="M33,28a1,1,0,0,0,1,1h2a1,1,0,0,0,0-2H34A1,1,0,0,0,33,28Z" fill="#901878" data-color="color-2"></path> <path d="M31.778,34.364a1,1,0,1,0-1.414,1.414l1.414,1.414a1,1,0,0,0,1.414-1.414Z" fill="#901878" data-color="color-2"></path> <path d="M24,41a1,1,0,0,0,1-1V38a1,1,0,0,0-2,0v2A1,1,0,0,0,24,41Z" fill="#901878" data-color="color-2"></path> <path d="M16.222,34.364l-1.414,1.414a1,1,0,1,0,1.414,1.414l1.414-1.414a1,1,0,1,0-1.414-1.414Z" fill="#901878" data-color="color-2"></path> <path d="M14,29a1,1,0,0,0,0-2H12a1,1,0,0,0,0,2Z" fill="#901878" data-color="color-2"></path> <path d="M16.222,21.636a1,1,0,1,0,1.414-1.414l-1.414-1.414a1,1,0,0,0-1.414,1.414Z" fill="#901878" data-color="color-2"></path></g></svg>